<svg width="161" height="116" viewBox="0 0 161 116" fill="none" xmlns="http://www.w3.org/2000/svg">
<path d="M146.31 33.02C146.1 32.92 145.89 32.85 145.71 32.78L145.59 32.74L142.82 31.74L132.8 28.1L128.16 26.42L125.8 25.57C125.77 25.56 125.75 25.55 125.72 25.54C125.72 25.52 125.72 25.51 125.72 25.49V24.36V23.98C125.72 16.6 125.72 9.22 125.72 1.84C125.72 1.64 125.71 1.44 125.69 1.25L125.68 1.04C125.65 0.58 125.31 0.2 124.86 0.12C124.48 0.04 121.73 0 116.7 0C109.13 0 105.09 0.06 104.71 0.18C104.29 0.31 104.01 0.7 104.01 1.14V3.1V5.1V7.04V9.04V11.04V13.04V14.98V15.54C104.01 16.02 104.01 16.49 104.01 16.97C104.01 17.2 104.01 17.42 104 17.65C103.54 17.48 103.08 17.31 102.62 17.15L100.97 16.55L83.3899 10.17L69.1899 5.02L68.8999 4.88C68.6099 4.77 68.2999 4.65 67.9699 4.56C67.7399 4.5 67.5099 4.47 67.2799 4.47C66.5199 4.47 65.8299 4.8 65.3699 5.39C64.9199 5.97 64.7599 6.74 64.9499 7.48C65.1599 8.3 65.7299 8.89 66.6599 9.22L67.5999 9.56C68.6499 9.94 69.6999 10.32 70.7499 10.7L70.8899 10.75C70.8899 10.8 70.8899 10.85 70.8899 10.9C70.8999 17.72 70.8999 24.53 70.8899 31.35C70.8899 31.55 70.8899 31.73 70.8999 31.87C70.7599 31.91 70.5999 31.97 70.4099 32.04C64.2699 34.27 58.1199 36.49 51.9699 38.7L44.4199 41.43C34.5399 45 24.6599 48.56 14.7799 52.13L14.5699 52.2C14.2999 52.3 14.0099 52.4 13.7199 52.54C12.6999 53.04 12.1799 54.22 12.4799 55.34C12.7599 56.37 13.7099 57.09 14.7799 57.09C14.8299 57.09 14.8699 57.09 14.9199 57.09C15.2199 57.07 15.5399 57 15.8999 56.87C17.1799 56.41 18.4599 55.95 19.7399 55.49L20.4499 55.24C20.5499 63.1 20.5499 103.96 20.4499 110.62H14.9099C14.4399 110.62 14.0299 110.95 13.9299 111.41C13.7699 112.15 13.7499 114 13.9599 114.67C14.0699 115.03 14.3799 115.3 14.7499 115.36C14.8799 115.38 15.2699 115.45 64.8699 115.45C118.84 115.45 146.39 115.4 146.76 115.29C147.19 115.17 147.48 114.77 147.48 114.33V111.65C147.48 111.12 147.06 110.68 146.53 110.65L146.3 110.64C146.13 110.63 145.97 110.62 145.81 110.62H143.85H142.83H141.9V37.13V36.78C141.9 36.7 141.9 36.62 141.9 36.55C142.04 36.6 142.19 36.65 142.33 36.71C143.07 36.98 143.83 37.26 144.6 37.51C144.84 37.59 145.08 37.63 145.33 37.63C146.34 37.63 147.24 36.99 147.57 36.05C147.98 34.84 147.45 33.57 146.31 33.02ZM103.96 110.58H87.9499V109.35C87.9499 103.33 87.9499 97.31 87.9499 91.3C87.9499 90.72 88.0499 90.62 88.6199 90.62C91.2399 90.62 93.8599 90.62 96.4699 90.62H102.2H103.89L103.9 94.77C103.91 98.08 103.91 101.38 103.92 104.69C103.92 105.9 103.93 107.1 103.94 108.31C103.95 109.07 103.96 109.82 103.96 110.58ZM129.31 89.11C128.49 87.06 126.6 85.79 124.37 85.79H107.37H98.8699H90.3699H89.8699H89.3699C89.0299 85.79 88.6999 85.79 88.3599 85.79C85.3799 85.81 83.1199 88.07 83.1199 91.06C83.1199 94.67 83.1199 98.27 83.1199 101.88C83.1199 104.78 83.1199 107.68 83.1199 110.58H75.7499C75.7499 77.95 75.7499 45.31 75.7499 12.57L79.8599 14.06L88.4699 17.18L98.9499 20.98L110.82 25.28L123.75 29.97L132.54 33.16L134.71 33.94C135.48 34.22 136.26 34.5 137.03 34.78C137.03 38.13 137.03 41.49 137.03 44.84V47.91C137.03 68.79 137.03 89.68 137.03 110.57H129.66C129.66 104.13 129.66 97.69 129.66 91.25C129.66 90.73 129.63 89.92 129.31 89.11ZM108.81 19.38C108.81 14.53 108.81 9.68 108.81 4.83H114.87H120.92V14.56V23.78C116.9 22.32 112.85 20.85 108.81 19.38ZM124.83 91.45V110.55C123.14 110.6 119.22 110.63 115.06 110.63C111.94 110.63 109.87 110.61 108.79 110.59V90.62H116.31H124.2C124.55 90.62 124.62 90.68 124.65 90.71C124.82 90.86 124.82 90.96 124.82 91C124.83 91.15 124.83 91.3 124.83 91.45ZM56.0899 75.31C55.7399 75.27 55.4099 75.26 55.1199 75.26H51.5099H49.1299H46.7499C44.3999 75.26 42.0499 75.26 39.7099 75.26C37.9899 75.26 36.5999 75.82 35.5499 76.92C34.6299 77.88 34.1399 79.12 34.0999 80.61C34.0899 81.02 34.0899 81.42 34.0899 81.83V82.33V96.55V110.62H29.2899H25.3299C25.3299 110.54 25.3299 110.46 25.3299 110.38V110.07V81.94V53.81V53.6L44.8799 46.49L60.0299 40.98L64.8099 39.24L70.8999 37.02C70.8999 40.5 70.8999 43.98 70.8999 47.46V50.22V80.5V110.62H68.9099H66.7299C64.7399 110.62 62.7499 110.62 60.7699 110.62C60.7699 103.77 60.7699 96.92 60.7699 90.08V83.75V80.58C60.7599 77.81 58.8399 75.64 56.0899 75.31ZM55.9399 110.62C50.2699 110.62 44.6099 110.62 38.9399 110.62C38.9399 100.68 38.9399 90.75 38.9399 80.81C38.9399 80.19 39.0399 80.09 39.6399 80.09H42.9599H46.2499H49.5399C51.4499 80.09 53.3499 80.09 55.2599 80.08C55.4999 80.08 55.6699 80.14 55.7799 80.25C55.8999 80.37 55.9699 80.57 55.9699 80.81C55.9499 88.52 55.9499 96.23 55.9499 103.94L55.9399 110.62Z" fill="#4538DA"/>
<path d="M9.95034 110.66H1.09034C0.620339 110.66 0.210339 110.99 0.110339 111.45C-0.0496613 112.17 -0.0596613 114.03 0.140339 114.67C0.250339 115.03 0.550339 115.29 0.920339 115.36C1.27034 115.42 2.50034 115.45 4.58034 115.45C7.98034 115.45 9.89034 115.39 10.2603 115.27C10.6703 115.13 10.9403 114.75 10.9403 114.32V111.66C10.9503 111.11 10.5003 110.66 9.95034 110.66Z" fill="#4538DA"/>
<path d="M159.76 110.66H154.45C153.98 110.66 153.57 110.99 153.47 111.44C153.31 112.16 153.31 114.01 153.51 114.67C153.62 115.02 153.92 115.29 154.28 115.35C154.72 115.43 155.82 115.45 156.67 115.45C157.97 115.45 159.61 115.42 160.07 115.27C160.48 115.13 160.75 114.75 160.75 114.32V111.66C160.76 111.11 160.31 110.66 159.76 110.66Z" fill="#4538DA"/>
<path d="M126.81 45.93C126.18 43.65 124.16 42.12 121.76 42.12C119.41 42.12 117.07 42.12 114.72 42.12H110.56H106.4H106.34H100.13C97.1403 42.12 94.1503 42.12 91.1503 42.13C90.4403 42.13 89.8103 42.23 89.2803 42.42C87.0903 43.2 85.7803 45.08 85.7803 47.44C85.7803 52.26 85.7803 57.08 85.7803 61.9C85.7803 65.03 88.0603 67.31 91.2103 67.31H120.91H121.19H121.48C121.6 67.31 121.72 67.31 121.84 67.31C124.78 67.23 127 64.97 127.01 62.04C127.02 57.16 127.02 52.28 127.01 47.4C127 46.88 126.93 46.39 126.81 45.93ZM122.19 57.1V61.86C122.19 61.9 122.19 61.94 122.19 61.98C122.17 62.29 122.02 62.44 121.69 62.48C121.6 62.49 121.51 62.49 121.43 62.49H121.32H121.2H91.5103H91.3903H91.2903C91.2603 62.49 91.2303 62.49 91.2003 62.49C90.7503 62.47 90.6103 62.32 90.6103 61.9C90.6003 60.51 90.6003 59.12 90.6103 57.73V57.11H106.14H114.34L122.19 57.1ZM90.6003 47.85V47.76C90.6003 47.59 90.6003 47.44 90.6203 47.31C90.6503 47.11 90.8103 46.96 91.0103 46.94C91.0803 46.93 91.1603 46.93 91.2303 46.93H91.3903H91.5803H121.33H121.46H121.57H121.67C122.17 46.95 122.18 47.23 122.18 47.38C122.21 48.95 122.2 50.56 122.19 52.11V52.28H121.87H121.52H106.4H90.6003C90.6003 50.8 90.6003 49.33 90.6003 47.85Z" fill="#4538DA"/>
</svg>
