<svg width="138" height="102" viewBox="0 0 138 102" fill="none" xmlns="http://www.w3.org/2000/svg">
<path d="M72.54 47.83C71.32 47.693 71.02 47.2738 71.02 46.395C71.03 35.4954 71.02 24.5958 71.02 13.6881C71.02 11.068 70.68 10.7616 67.55 10.2538C65.99 10.0038 65.08 9.08478 64.77 7.91581C64.39 6.5453 65.29 5.51339 66.56 4.65883C67.65 3.9252 68.79 3.9252 70.02 4.40891C71.79 5.11029 72.38 6.34376 72.68 7.80295C72.91 8.91548 74.01 9.54431 75.19 9.43144C76.68 9.28633 77.64 8.47208 77.66 7.31118C77.69 5.56982 76.87 4.10256 75.55 2.74817C73.37 0.531164 69.45 -0.549123 66.2 0.257061C62.53 1.16805 59.84 3.81234 59.68 6.73072C59.51 9.85066 60.96 12.2531 64.51 13.7203C65.32 14.0589 66.08 14.3572 66.07 15.3247C66.02 20.4923 66.04 25.668 66.04 30.8356C66.05 30.8356 66.07 30.8356 66.08 30.8356C66.08 35.7856 66.08 40.7356 66.08 45.6856C66.08 47.4995 66.02 47.5962 63.78 47.9026C60.6 48.3299 57.71 49.2328 55.2 50.9177C52.04 53.038 50.1 55.6823 50.74 59.0279C51.29 61.8738 53.36 64.0988 56.48 65.6064C58.09 66.3884 58.09 66.4206 56.89 67.5412C56.65 67.767 56.35 67.9524 56.16 68.2023C55.38 69.2745 54.28 70.2903 53.95 71.4512C53.04 74.7243 55 77.2154 58.08 79.11C59.26 79.8436 59.14 80.2386 58.38 81.0126C56.4 83.0442 56.53 86.5753 58.85 88.4617C60.53 89.8322 62.44 90.7271 64.69 91.2028C65.68 91.4124 66.03 91.8155 66.02 92.6055C65.99 94.75 65.99 96.8944 66.03 99.0389C66.06 100.506 66.88 101.232 68.4 101.232C70.07 101.224 71.03 100.442 71.08 98.9824C71.11 98.2407 71.03 97.5071 71.03 96.7654C71.03 93.2182 71.02 89.671 71.06 86.1238C71.07 85.0919 70.69 84.3018 69.45 83.9148C67.75 83.3828 66.44 84.068 66.04 85.5272C65.91 86.019 65.54 86.6801 65.06 86.8494C64.35 87.0912 62.45 85.6884 62.16 84.9226C61.72 83.81 62.66 83.2054 63.59 82.7862C66.83 81.3431 70.16 81.3754 73.46 82.6894C75.13 83.3505 75.47 84.6001 74.39 85.7933C74.09 86.1238 73.8 86.4543 73.48 86.7687C72.56 87.6475 73.05 88.5182 73.76 89.1792C74.46 89.8403 75.57 90.2192 76.61 89.6629C79.49 88.1312 81.07 85.4305 79.78 82.5524C78.53 79.771 75.65 78.6182 72.44 77.9168C71.33 77.683 71.02 77.3122 71.03 76.506C71.06 75.1355 71.09 73.773 71.02 72.4025C71 71.9672 70.79 71.4351 70.44 71.1207C69.74 70.508 68.83 70.0404 67.74 70.4354C66.67 70.8224 66.03 71.5238 66.03 72.5235C66.04 73.7408 66.07 74.9581 66.03 76.1755C66.01 76.764 65.78 77.3928 64.82 77.1671C62.28 76.5624 60.04 75.595 59.05 73.4425C58.88 73.0797 58.93 72.5718 59.11 72.201C59.93 70.4838 61.58 69.5244 63.73 69.0407C68 68.0894 72.17 68.033 76.03 70.0323C77.93 71.0159 79.33 72.9104 77.21 74.9017C77.09 75.0146 77.02 75.1516 76.9 75.2645C75.96 76.1755 76.34 76.9655 77.25 77.7072C78.24 78.5053 79.16 78.5698 80.32 77.941C83.97 75.9739 84.45 71.3142 81.33 68.3152C79.04 66.1062 75.97 65.0582 72.57 64.5583C71.37 64.381 71.01 63.9134 71.03 62.9621C71.1 60.6 71.07 58.2298 71.05 55.8677C71.04 54.8519 69.82 53.8603 68.63 53.8119C67.28 53.7635 66.24 54.5213 66.07 55.6823C66.02 56.0128 66.04 56.3433 66.04 56.6819C66.04 58.6409 66.06 60.6 66.03 62.5509C66.02 63.2684 65.96 64.1633 64.65 63.8247C62.79 63.3491 60.86 62.8654 59.22 62.043C54.92 59.8905 54.79 56.5287 58.73 53.9812C63.31 51.0225 72.71 50.7645 77.58 53.5297C79.58 54.6665 81.45 55.9402 81.2 58.2701C81.07 59.5519 80.2 60.4387 79.16 61.3014C77.97 62.2849 77.89 63.607 78.92 64.4616C79.99 65.3403 81.37 65.3242 82.71 64.3326C83.34 63.865 83.88 63.2926 84.41 62.7444C87.19 59.9067 86.91 55.4888 84.06 52.6994C81.01 49.7649 77.08 48.3379 72.54 47.83Z" fill="#4538DA"/>
<path d="M135.52 26.7573C134.66 26.5154 133.73 26.4348 132.86 26.2171C127.98 24.9917 123 23.984 118.28 22.4442C113.15 20.7673 108.6 18.1553 104.03 15.6158C99.7001 13.2134 94.9601 12.7538 90.1601 14.7935C88.4701 15.511 86.9801 16.5187 85.3201 17.3007C82.3201 18.7115 79.2901 20.074 76.2501 21.4203C74.8101 22.0572 74.1401 23.2342 74.7401 24.2742C75.4001 25.4109 76.8801 25.8947 78.3001 25.2658C81.7001 23.7583 85.0501 22.1781 88.4001 20.598C90.0501 19.816 91.5501 18.7519 93.2901 18.1714C96.5201 17.0911 99.3701 18.0747 102.16 19.55C106.29 21.7347 110.47 23.8792 114.83 25.7173C117.97 27.0314 121.45 27.8295 124.79 28.8292C125.96 29.1758 127.17 29.4499 128.74 29.845C128.01 30.3045 127.61 30.6592 127.12 30.8446C122.75 32.4973 118.18 33.3035 113.37 32.6182C110.85 32.2635 108.3 31.8604 105.9 31.1671C102.16 30.0868 98.5401 28.7244 94.8601 27.507C93.1701 26.9508 91.7401 27.2813 91.1901 28.3051C90.5201 29.5547 91.0601 30.5866 92.7701 31.28C97.8501 33.3519 103.14 34.9723 108.66 36.0929C108.98 36.1574 109.26 36.3751 109.55 36.5202C109.33 36.7701 109.17 37.1329 108.86 37.2457C106.46 38.1325 103.93 38.6243 101.29 38.5679C95.9401 38.4469 91.2301 36.8265 86.8201 34.5128C85.4401 33.7872 83.9101 34.0129 83.0701 35.0045C82.2701 35.9558 82.5601 37.1571 83.8901 37.8907C84.9801 38.4873 86.1401 39.0113 87.3101 39.4869C89.1701 40.2447 91.0801 40.93 93.2301 41.7442C91.9301 42.631 90.5701 42.76 89.2101 42.752C85.3101 42.7359 81.8001 41.6153 78.3901 40.1883C76.9601 39.5837 75.5401 39.9384 74.8601 40.9864C74.1401 42.0909 74.4701 43.2437 75.9101 43.8323C79.4601 45.2753 83.0801 46.5894 87.1301 46.8958C91.7801 47.2505 95.8401 46.0735 99.3701 43.7678C100.58 42.9777 101.7 42.7359 103.18 42.6311C105.12 42.494 107.04 42.0587 108.92 41.6314C112.12 40.8978 114.65 39.2451 117.15 37.5521C117.77 37.1329 118.69 36.8507 119.49 36.8104C126.36 36.4637 131.92 34.0532 136.48 29.9981C137.75 28.8856 137.26 27.249 135.52 26.7573Z" fill="#4538DA"/>
<path d="M62.23 41.4943C62.27 40.5833 61.34 39.9867 60.26 39.9383C59.5 39.9061 58.7 40.2286 57.94 40.4462C55.54 41.1396 53.19 41.9941 50.73 42.5343C48.47 43.026 46.14 42.889 43.66 41.7523C44.59 41.3895 45.23 41.1557 45.85 40.8977C48.17 39.9464 50.52 39.0515 52.78 38.0116C54.51 37.2134 54.75 36.1412 53.74 34.8513C53.05 33.9726 51.45 33.9081 49.95 34.5853C47.92 35.5043 45.88 36.4314 43.75 37.1812C39.69 38.6081 35.43 38.8984 31.11 38.1244C30.05 37.939 29.05 37.5117 28.06 37.1409C27.82 37.0522 27.56 36.7539 27.57 36.5604C27.58 36.3992 27.93 36.1654 28.19 36.1009C31.75 35.1657 35.35 34.3434 38.86 33.3034C40.99 32.6746 43.02 31.7878 45 30.8849C46.25 30.3125 46.49 29.2403 45.88 28.2809C45.32 27.4022 43.95 26.983 42.69 27.3377C42.17 27.4828 41.66 27.6602 41.18 27.8698C35.75 30.1754 29.99 31.675 23.96 32.5618C20.49 33.0697 17.11 32.8036 13.78 32.0216C12.35 31.683 10.99 31.1187 9.62002 30.6108C9.34002 30.506 9.02002 30.1835 9.02002 29.9658C9.02002 29.7885 9.47002 29.5547 9.77002 29.466C10.75 29.1758 11.78 28.9742 12.76 28.684C15.76 27.8053 18.83 27.0313 21.74 25.9752C26.67 24.1774 31.22 21.8395 35.58 19.2516C36.41 18.7599 37.39 18.3648 38.37 18.0907C41.59 17.1798 44.31 18.123 47 19.558C50.69 21.5332 54.51 23.3551 58.31 25.1852C59.68 25.8462 61.28 25.5238 61.98 24.6047C62.78 23.5486 62.38 22.3152 60.95 21.5573C60.49 21.3155 59.99 21.1301 59.52 20.9124C57.37 19.9369 55.19 19.0098 53.09 17.9698C51.14 17.0024 49.37 15.7851 47.37 14.9063C43.48 13.1811 39.34 12.9392 35.41 14.6564C31.84 16.2123 28.57 18.2117 25.05 19.8402C22.12 21.1946 19.1 22.4683 15.96 23.4519C11.53 24.8304 7.00001 25.9994 2.27001 26.596C0.130014 26.862 -0.629986 28.4018 0.590014 29.853C1.27001 30.6592 2.22001 31.3525 3.15001 31.9894C7.09001 34.674 11.58 36.4395 16.77 36.7136C18.3 36.7942 19.55 37.1006 20.61 37.9068C24.75 41.0267 29.67 42.5181 35.29 42.7036C35.95 42.7277 36.7 43.0422 37.21 43.413C39.45 45.0334 42.06 46.2185 44.92 46.67C50.85 47.6052 56.23 46.0331 61.24 43.6065C61.88 43.2921 62.2 42.2279 62.23 41.4943Z" fill="#4538DA"/>
</svg>
