<svg width="105" height="120" viewBox="0 0 105 120" fill="none" xmlns="http://www.w3.org/2000/svg">
<path d="M80.2401 34.28C81.1901 32.97 81.9701 31.53 82.6901 30.08C83.3601 28.74 83.9301 27.34 84.3701 25.91C84.8701 24.29 85.3601 22.64 85.5101 20.96C85.6801 19 85.7701 16.99 84.9101 15.07C83.9901 13.03 83.5401 10.7 82.3201 8.87997C78.5301 3.23997 73.1901 0.269971 66.2701 0.099971C62.8701 0.019971 59.7201 0.709971 56.7301 2.16997C55.4501 2.78997 54.3601 3.77997 53.1201 4.48997C52.7401 4.70997 51.9701 4.79997 51.7001 4.56997C49.2401 2.49997 46.4401 1.28997 43.3301 0.499971C39.6901 -0.420029 36.2001 0.059971 32.7201 1.01997C30.4101 1.65997 28.3901 2.90997 26.5001 4.42997C23.4401 6.87997 21.4901 10.11 20.1601 13.66C19.4501 15.55 19.4401 17.7 19.0801 20C19.4801 22.09 19.7001 24.41 20.3901 26.58C21.6601 30.53 24.0001 33.92 26.7101 37.04C30.4301 41.33 34.5201 45.26 39.0601 48.67C42.9501 51.59 46.9401 54.38 50.8901 57.21C51.8301 57.88 52.8501 57.85 53.7901 57.19C57.5301 54.54 61.3101 51.94 64.9601 49.18C70.6701 44.86 76.0201 40.13 80.2401 34.28ZM53.2501 51.94C52.3901 52.52 51.6101 52.07 50.9201 51.6C45.6101 47.97 40.4701 44.1 35.8301 39.64C33.2201 37.14 30.6701 34.51 28.4501 31.67C26.9901 29.8 25.9801 27.51 25.0801 25.28C24.3501 23.47 24.0901 21.47 23.7601 20.12C24.4301 13.16 27.3301 8.36997 33.2801 5.78997C35.7401 4.71997 38.3501 4.51997 41.1001 4.84997C45.0501 5.31997 48.0101 7.27997 50.6101 10.05C51.6501 11.15 53.0001 11.17 54.0401 10.07C56.1401 7.87997 58.4901 5.99997 61.4601 5.23997C63.3801 4.74997 65.3001 4.24997 67.4501 4.76997C69.7801 5.33997 72.1401 5.70997 74.1301 7.13997C76.4301 8.78997 78.4701 10.79 79.5601 13.41C80.8801 16.57 81.0801 19.89 80.3701 23.34C79.3401 28.33 76.2101 31.95 72.9901 35.54C68.5401 40.49 63.3201 44.59 58.0701 48.63C56.5401 49.83 54.8701 50.86 53.2501 51.94Z" fill="#4538DA"/>
<path d="M104.51 72.6C104.05 71.01 103.88 69.34 103.56 67.71C103.27 66.28 103.02 64.83 102.62 63.43C102.05 61.42 101.4 59.42 100.73 57.44C99.9302 55.08 99.1902 52.69 98.2302 50.4C97.2202 47.98 96.0202 45.65 94.8602 43.3C93.5102 40.57 91.7002 38.18 89.1802 36.47C87.0802 35.06 84.4602 35.34 83.2202 37.24C82.5802 38.23 82.1002 39.5 82.0502 40.67C81.8602 44.78 81.9002 48.89 82.7302 52.95C83.0002 54.27 84.5602 55.52 85.6702 55.21C87.0402 54.83 87.8202 53.28 87.3702 51.88C87.2202 51.43 87.0802 50.96 87.0402 50.49C86.8102 47.8 86.5902 45.1 86.4302 42.41C86.4102 42 86.7002 41.57 86.8502 41.15C87.2502 41.33 87.8002 41.4 88.0302 41.7C89.0702 43.1 90.1702 44.48 90.9602 46.01C92.2102 48.43 93.2602 50.96 94.3402 53.46C95.0302 55.06 95.6502 56.7 96.2202 58.35C96.8102 60.07 97.3402 61.81 97.8202 63.56C98.2002 64.93 98.3802 66.36 98.7902 67.72C99.5302 70.21 100.16 72.7 100.09 75.32C100.08 75.86 99.9902 76.47 99.7302 76.92C96.9002 81.78 93.9602 86.56 91.2002 91.46C88.9402 95.47 86.8702 99.59 84.7702 103.68C83.9002 105.37 83.6602 105.61 81.7402 105.56C81.0202 105.54 80.3002 105.53 79.5802 105.53C74.0602 105.47 68.5502 105.41 63.0302 105.37C61.2602 105.35 59.9602 106.41 59.9302 108.1C59.8702 111.18 59.9002 114.26 60.0002 117.33C60.0602 119.02 60.7302 119.52 62.4502 119.53C65.9702 119.54 69.4902 119.54 73.0102 119.54C74.7702 119.54 76.5302 119.61 78.2902 119.5C78.8202 119.47 79.5102 119.1 79.8002 118.66C80.8902 117.03 79.8702 114.97 77.5202 115.1C74.1302 115.28 70.7302 115.18 67.3302 115.18C64.6902 115.19 64.6902 115.18 64.7002 112.6C64.7002 112.24 64.7402 111.88 64.6802 111.52C64.5202 110.44 65.0002 110.12 66.0302 110.13C69.4302 110.17 72.8302 110.15 76.2302 110.15C76.2302 110.17 76.2302 110.18 76.2302 110.19C79.6702 110.19 83.1102 110.22 86.5502 110.17C87.5202 110.16 87.8402 110.53 87.7802 111.44C87.7302 112.16 87.7102 112.89 87.7702 113.6C87.8502 114.48 87.7402 115.06 86.7702 115.48C85.7702 115.91 85.4002 116.89 85.6302 118.01C85.8502 119.07 86.5902 119.56 87.6002 119.62C88.5102 119.67 89.4402 119.7 90.3402 119.6C91.8902 119.42 92.6002 118.62 92.6302 117.05C92.6802 114.37 92.7102 111.69 92.6602 109.01C92.6202 106.78 92.0802 106.13 89.9302 105.6C89.3002 105.44 89.1102 105.15 89.3802 104.58C89.8602 103.54 90.3102 102.48 90.8702 101.48C92.6202 98.36 94.4002 95.25 96.2102 92.16C98.5102 88.24 100.84 84.35 103.17 80.45C104.62 78.02 105.33 75.48 104.51 72.6Z" fill="#4538DA"/>
<path d="M44.5001 107.07C44.3801 106.61 43.9301 106.01 43.5101 105.9C42.3401 105.61 41.1201 105.4 39.9201 105.41C34.0401 105.42 28.1701 105.49 22.2901 105.57C21.2501 105.59 20.5601 105.25 20.1001 104.28C18.3501 100.59 16.7101 96.83 14.7201 93.26C12.1001 88.54 9.19013 83.97 6.42013 79.32C5.86013 78.37 5.13013 77.41 4.94013 76.37C4.43013 73.49 5.16013 70.67 5.84013 67.89C6.35013 65.78 7.08013 63.72 7.72013 61.64C8.35013 59.59 8.91013 57.52 9.63013 55.51C10.3801 53.42 11.1601 51.33 12.1401 49.35C13.3201 46.97 14.6601 44.67 16.0501 42.41C16.4201 41.81 17.2401 41.49 17.8501 41.04C18.0401 41.76 18.2401 42.47 18.4101 43.19C18.4601 43.42 18.4401 43.67 18.4101 43.91C18.0501 46.67 17.7501 49.43 17.2901 52.17C17.0901 53.38 17.6901 54.04 18.4201 54.75C19.1201 55.42 19.8301 55.29 20.6201 54.9C21.6701 54.39 22.2101 53.62 22.1901 52.44C22.1801 51.92 22.2101 51.4 22.3101 50.89C23.0901 46.67 23.4801 42.47 22.1801 38.26C21.7301 36.8 19.5901 35.38 18.0901 35.66C16.0401 36.03 14.3801 37.1 13.0701 38.65C9.98013 42.29 8.10013 46.6 6.40013 50.99C5.53013 53.24 4.77013 55.53 4.02013 57.82C3.33013 59.92 2.68013 62.04 2.08013 64.16C1.69013 65.53 1.36013 66.93 1.12013 68.33C0.700134 70.79 0.340134 73.27 0.0201335 75.76C-0.0398665 76.25 0.110134 76.82 0.330134 77.27C1.44013 79.54 2.51013 81.83 3.77013 84.02C5.93013 87.79 8.27013 91.45 10.4301 95.22C12.0201 97.99 13.4601 100.83 14.9101 103.68C15.5901 105.03 15.3101 105.53 13.8301 105.84C12.7601 106.06 12.2001 106.78 12.1801 107.76C12.1401 111 12.1401 114.24 12.2401 117.47C12.2701 118.38 12.6801 119.38 13.7401 119.54C14.9501 119.71 16.2101 119.71 17.4401 119.63C18.4501 119.56 19.1301 118.93 19.2901 117.88C19.4601 116.75 18.9001 115.8 18.0001 115.41C17.0701 115.01 16.9401 114.5 17.0001 113.67C17.0401 113.07 16.9701 112.47 16.9601 111.87C16.9401 110.39 17.1401 110.18 18.5701 110.18C21.9301 110.18 25.2901 110.18 28.6501 110.18C32.0901 110.18 35.5301 110.2 38.9701 110.17C39.8901 110.16 40.3001 110.45 40.2301 111.41C40.1701 112.21 40.2201 113.01 40.2301 113.81C40.2401 114.75 39.8201 115.21 38.8501 115.19C37.1301 115.17 35.4101 115.17 33.6901 115.18C31.2901 115.18 28.8901 115.15 26.4901 115.21C25.4601 115.24 24.4401 116.51 24.4901 117.51C24.5501 118.53 25.5501 119.53 26.6101 119.53C31.9301 119.55 37.2501 119.48 42.5601 119.59C44.2301 119.62 44.9201 118.44 44.9301 116.98C44.9401 114.59 44.8701 112.19 44.7901 109.79C44.7701 108.88 44.7201 107.95 44.5001 107.07Z" fill="#4538DA"/>
<path d="M41.6001 86.85C41.2901 85.29 40.7401 83.71 39.9701 82.32C38.2201 79.15 35.3001 77.01 32.6501 74.67C29.8701 72.22 27.6501 69.33 25.7401 66.17C24.2301 63.67 22.8901 61.03 20.1101 59.5C18.0501 58.37 15.1101 58.65 13.7001 60.41C11.2301 63.49 11.6301 66.95 12.5001 70.39C12.8701 71.85 13.6601 73.21 14.3101 74.6C16.0001 78.24 17.6801 81.88 19.4401 85.48C20.2001 87.05 20.8101 87.29 22.5101 87.11C23.6301 86.99 24.5501 85.35 24.0701 84.32C22.0801 80.12 20.1201 75.91 18.0901 71.74C17.1001 69.72 16.1301 67.7 16.4701 65.38C16.5701 64.73 17.0301 64.13 17.3301 63.51C17.8201 63.78 18.3301 64.04 18.8001 64.34C18.9901 64.46 19.1501 64.67 19.2801 64.87C20.5701 66.91 21.7701 69.02 23.1601 71C25.7401 74.69 28.8801 77.87 32.3901 80.67C34.8901 82.66 36.7801 85.13 37.2501 88.23C37.7601 91.55 38.3601 94.92 37.6601 98.35C37.3501 99.84 38.3901 100.84 39.8301 100.87C41.4101 100.91 42.3201 100.08 42.3601 98.5C42.3901 97.14 42.3701 95.78 42.3701 94.42C42.4601 94.41 42.5601 94.39 42.6501 94.38C42.3101 91.87 42.1001 89.33 41.6001 86.85Z" fill="#4538DA"/>
<path d="M86.1301 73.1399C84.5801 76.6699 82.8901 80.1299 81.1201 83.5599C80.5901 84.5899 80.4801 85.2799 81.1901 86.2399C81.9101 87.2299 83.7501 87.58 84.5501 86.62C85.2001 85.83 85.7801 84.9399 86.2301 84.0199C87.6201 81.1199 89.0401 78.21 90.2501 75.23C91.3101 72.6 92.7101 70.0999 92.9101 67.1399C93.1101 64.2599 92.4301 61.7899 90.4401 59.6899C90.2301 59.4699 89.9401 59.2699 89.6501 59.1799C87.0701 58.3899 84.7101 58.7499 82.9401 60.8899C81.5301 62.5999 80.3801 64.52 79.0501 66.3C77.2601 68.69 75.5601 71.1599 73.5601 73.3499C71.6301 75.4699 69.3901 77.2899 67.2601 79.2199C63.9301 82.24 62.8601 86.1999 62.5701 90.4699C62.5001 91.59 62.5601 92.7099 62.5601 93.8299C62.5601 95.3099 62.5501 96.7899 62.5601 98.2699C62.5701 100.1 63.4201 100.98 65.0501 100.88C66.6501 100.77 67.6201 99.6899 67.2201 97.9899C66.3801 94.3999 67.2601 90.91 67.6501 87.4C67.7601 86.4599 68.2101 85.4299 68.8201 84.7099C70.2501 83.0199 71.7801 81.37 73.4501 79.91C77.6701 76.23 81.2701 72.0699 84.0301 67.1799C84.7201 65.9499 85.7201 64.8799 86.6601 63.8099C86.8101 63.6399 87.6701 63.7399 87.7001 63.8499C87.9601 64.8299 88.4401 65.9199 88.2301 66.8299C87.7101 68.9699 87.0201 71.1099 86.1301 73.1399Z" fill="#4538DA"/>
</svg>
