<svg width="115" height="115" viewBox="0 0 115 115" fill="none" xmlns="http://www.w3.org/2000/svg">
<path d="M95.42 6.16001C95.13 5.22001 94.65 4.51001 93.46 4.39001C86.5 3.69001 79.73 4.79001 73.34 7.36001C63.5 11.32 55.79 17.93 50.56 27.27C50.32 27.71 49.76 28.11 49.27 28.24C41.37 30.32 35.59 34.95 32.4 42.51C29.18 50.15 26.15 57.88 23.05 65.57C22.46 67.04 23.21 68.07 24.82 67.88C27.22 67.59 29.6 67.21 31.99 66.86C34.33 66.51 36.67 66.16 39.1 65.79C39.04 66.05 39.05 66.21 38.98 66.31C37.4 68.46 35.8 70.61 34.22 72.77C33.79 73.36 33.41 73.13 32.92 72.87C26.06 69.24 19.14 69.17 12.2 72.63C9.89002 73.79 7.87002 75.37 6.17002 77.32C5.58002 78 5.52002 78.72 6.15002 79.4C6.72002 80.02 7.41002 80.14 8.11002 79.65C8.50002 79.38 8.81002 79 9.14002 78.66C14.43 73.39 22.62 71.76 29.47 74.62C30.29 74.96 31.06 75.42 31.92 75.86C30.97 77.17 30.08 78.25 29.39 79.44C29.12 79.91 29.07 80.75 29.31 81.22C29.86 82.24 30.97 82.26 31.74 81.28C33.18 79.44 34.56 77.54 35.94 75.65C38.24 72.52 40.54 69.4 42.81 66.25C43.25 65.65 43.56 65.52 44.2 66.03C44.82 66.51 45.01 66.85 44.42 67.5C43.81 68.17 43.31 68.95 42.77 69.69C41.17 71.83 39.56 73.97 37.99 76.12C37.31 77.06 37.42 77.81 38.24 78.41C39.01 78.97 39.69 78.85 40.44 78C40.66 77.75 40.84 77.47 41.03 77.21C43 74.57 44.98 71.94 46.93 69.28C47.37 68.68 47.71 68.55 48.33 69.07C49.23 69.82 50.19 70.5 51.16 71.14C51.76 71.54 51.81 71.84 51.37 72.43C47.05 78.26 42.77 84.1 38.47 89.94C38.22 90.28 37.93 90.58 37.69 90.85C36.8 90.35 36.01 89.97 35.29 89.48C34.85 89.18 34.36 88.78 34.16 88.31C32.29 83.96 28.16 81.75 23.55 82.8C21.16 83.34 19.3 84.71 18.01 86.81C17.54 87.58 17.67 88.33 18.4 88.85C19.12 89.35 19.86 89.24 20.47 88.59C20.65 88.4 20.79 88.19 20.94 87.99C23.68 84.52 29.04 84.84 30.86 88.85C31.75 90.82 32.77 92.01 34.78 92.85C37.21 93.87 38.24 96.18 38.5 98.79C38.6 99.75 39.12 100.38 40.12 100.39C40.99 100.4 41.67 99.58 41.48 98.51C41.21 97.02 40.81 95.53 40.28 94.12C40.04 93.48 39.98 93.09 40.4 92.56C41.18 91.59 41.91 90.57 42.61 89.55C43.01 88.97 43.34 88.93 43.95 89.31C46.2 90.74 48.14 92.5 49.69 94.68C52.71 98.92 54.03 103.65 53.63 108.86C53.54 110.03 54.13 110.77 55.04 110.85C55.91 110.92 56.65 110.18 56.73 109.06C57.02 105.01 56.44 101.09 54.78 97.37C52.83 92.97 49.84 89.44 45.78 86.85C45.11 86.42 45.03 86.13 45.55 85.5C46.41 84.46 47.18 83.33 47.98 82.24C49.51 80.16 51.04 78.08 52.74 75.75C52.93 76.66 53.09 77.31 53.19 77.97C53.8 81.94 54.37 85.93 55.01 89.9C55.33 91.87 56.49 92.26 58.02 91.01C64.37 85.81 70.75 80.66 77.03 75.39C82.92 70.45 85.75 64 85.63 56.36C85.6 54.65 86.05 53.56 87.14 52.34C93.8 44.94 97.4 36.19 98.35 26.3C98.78 21.88 98.42 17.51 97.49 13.21C97 10.82 96.16 8.50001 95.42 6.16001ZM43.12 50.91C42.35 54.4 41.9 57.96 41.23 61.48C41.16 61.85 40.66 62.36 40.29 62.42C37.15 62.96 34 63.41 30.86 63.89C29.61 64.08 28.36 64.27 26.84 64.51C27.97 61.73 28.97 59.23 29.99 56.74C32.02 51.81 33.86 46.79 36.14 41.98C38.54 36.92 42.76 33.72 48.01 31.86C48.06 31.84 48.14 31.9 48.28 31.95C47.67 33.84 46.96 35.7 46.45 37.61C45.28 42.03 44.1 46.44 43.12 50.91ZM78.97 68.73C77.28 71.27 74.96 73.16 72.63 75.06C67.95 78.88 63.3 82.71 58.63 86.54C58.41 86.72 58.16 86.87 57.81 87.11C57.62 86.13 57.41 85.26 57.28 84.38C56.76 80.95 56.3 77.51 55.73 74.09C55.58 73.19 55.82 72.78 56.62 72.42C62.88 69.57 68.83 66.15 74.63 62.46C77 60.95 79.25 59.25 81.56 57.64C81.85 57.44 82.13 57.24 82.68 56.84C82.43 61.37 81.31 65.23 78.97 68.73ZM95.24 26.79C93.66 39.61 87.7 49.79 77.02 57.12C70.23 61.78 63.13 65.92 55.68 69.44C55.29 69.62 54.58 69.54 54.23 69.29C51.19 67.13 48.18 64.91 45.2 62.68C44.81 62.39 44.56 61.91 44.27 61.55C44.99 57.76 45.57 54.14 46.36 50.58C47.24 46.62 48.25 42.69 49.32 38.77C52.06 28.72 57.5 20.52 66.2 14.7C68.64 13.06 71.39 11.88 73.98 10.46C74.62 10.11 74.95 10.34 75.35 10.84C80.46 17.26 86.78 22.11 94.36 25.3C95.05 25.58 95.35 25.95 95.24 26.79ZM95.34 22.16C91.03 21.32 80.97 13.72 78.02 9.04001C78.9 8.82001 79.72 8.60001 80.54 8.41001C84.13 7.57001 87.77 7.28001 91.44 7.36001C92.23 7.38001 92.66 7.62001 92.95 8.45001C94.42 12.66 95.31 16.97 95.38 21.44C95.39 21.64 95.36 21.86 95.34 22.16Z" fill="#4538DA"/>
<path d="M10.28 29.0599C10.47 28.9199 10.9 28.6899 11.17 28.3499C11.65 27.7499 12.01 27.0699 12.45 26.4399C13.05 25.5599 12.67 24.8799 11.94 24.3899C11.21 23.8899 10.45 24.0199 9.91001 24.7599C9.42001 25.4399 8.93001 26.1299 8.53001 26.8699C8.01001 27.8299 8.90001 29.1099 10.28 29.0599Z" fill="#4538DA"/>
<path d="M107.07 36.06C107.25 37.08 107.69 38.09 108.26 38.96C108.5 39.33 109.39 39.57 109.84 39.43C110.35 39.27 110.7 38.6 111.15 38.12C110.6 36.92 110.25 35.86 109.65 34.98C109.4 34.62 108.46 34.41 108.04 34.6C107.57 34.83 106.98 35.62 107.07 36.06Z" fill="#4538DA"/>
<path d="M94.1 96.8201C93.47 97.3701 92.82 97.9101 92.24 98.5101C92 98.7501 91.9 99.1301 91.66 99.5901C91.99 100.01 92.24 100.57 92.67 100.77C93.08 100.97 93.78 100.97 94.15 100.74C94.89 100.29 95.53 99.6601 96.14 99.0401C96.79 98.3901 96.73 97.6401 96.13 96.9901C95.53 96.3601 94.82 96.1901 94.1 96.8201Z" fill="#4538DA"/>
<path d="M105.65 30.7199C106.17 30.5699 106.53 29.9199 107.16 29.2899C106.23 28.0699 105.5 26.9699 104.59 26.0399C104.38 25.8199 103.43 26.0299 103.08 26.3399C102.73 26.6499 102.44 27.4299 102.59 27.8299C102.91 28.6999 103.44 29.5399 104.06 30.2299C104.4 30.5899 105.19 30.8499 105.65 30.7199Z" fill="#4538DA"/>
<path d="M102.13 89.53C101.68 89.36 100.91 89.46 100.56 89.77C99.86 90.39 99.25 91.17 98.8 91.99C98.6 92.36 98.68 93.12 98.95 93.45C99.26 93.84 99.92 94.15 100.42 94.14C101.25 94.12 103.09 91.7 103.08 90.55C102.88 90.32 102.59 89.7 102.13 89.53Z" fill="#4538DA"/>
<path d="M59.03 3.10999C59.68 3.14999 60.34 3.17999 61 3.15999C61.89 3.13999 62.58 2.48999 62.57 1.65999C62.56 0.69999 61.98 0.20999 61.09 0.0699902C60.7 0.00999023 60.29 0.0599902 59.89 0.0599902C59.89 0.0399902 59.89 0.00999023 59.89 -0.0100098C59.64 -0.0100098 59.38 -0.0100098 59.13 -0.0100098C58.06 0.00999023 57.23 0.67999 57.23 1.53999C57.22 2.32999 58.03 3.04999 59.03 3.10999Z" fill="#4538DA"/>
<path d="M40.25 5.64998C40.95 5.44998 41.65 5.22998 42.34 4.98998C43.35 4.63998 43.71 3.68998 43.23 2.80998C42.53 1.53998 41.48 2.02998 40.54 2.31998C39.57 2.61998 38.36 2.69998 38.24 3.97998C38.22 5.17998 39.22 5.94998 40.25 5.64998Z" fill="#4538DA"/>
<path d="M79.03 106.63C77.79 107.2 76.7 107.57 75.8 108.19C75.45 108.43 75.32 109.3 75.44 109.8C75.61 110.51 76.27 110.98 77.05 110.74C77.98 110.46 78.94 110.14 79.74 109.61C80.13 109.35 80.46 108.51 80.33 108.07C80.17 107.53 79.51 107.13 79.03 106.63Z" fill="#4538DA"/>
<path d="M6.02001 37.5699C6.22001 37.3699 6.71001 37.0099 7.02001 36.5399C7.37001 35.9999 7.56001 35.3499 7.83001 34.7499C8.24001 33.8499 7.90001 33.1699 7.13001 32.6999C6.43001 32.2699 5.51001 32.5399 5.07001 33.3399C4.67001 34.0699 4.32001 34.8499 4.07001 35.6399C3.72001 36.7099 4.48001 37.6099 6.02001 37.5699Z" fill="#4538DA"/>
<path d="M109.95 45.3801C110.06 46.1401 110.17 46.9101 110.4 47.6301C110.65 48.4301 111.24 48.9701 112.12 48.8301C112.95 48.6901 113.48 48.1601 113.48 47.0301C113.33 46.3401 113.22 45.4201 112.91 44.5701C112.64 43.8301 111.97 43.4101 111.14 43.6601C110.34 43.9101 109.81 44.4701 109.95 45.3801Z" fill="#4538DA"/>
<path d="M86.78 102.56C85.97 102.95 85.15 103.41 84.5 104.03C84.16 104.35 83.98 105.13 84.13 105.57C84.29 106.06 84.89 106.41 85.41 106.92C86.48 106.28 87.39 105.77 88.26 105.2C89.01 104.71 89.22 104 88.77 103.21C88.31 102.44 87.57 102.18 86.78 102.56Z" fill="#4538DA"/>
<path d="M106.33 81.18C106.14 81.33 105.7 81.55 105.45 81.9C104.99 82.55 104.61 83.27 104.25 83.99C103.81 84.87 104.15 85.52 104.95 86.02C105.76 86.53 106.39 86.21 106.84 85.56C107.36 84.82 107.82 84.01 108.16 83.17C108.55 82.24 107.63 81.14 106.33 81.18Z" fill="#4538DA"/>
<path d="M3.62005 64.1401C3.50005 63.4201 3.44005 62.6901 3.26005 61.9801C3.04005 61.1301 2.43005 60.6501 1.55005 60.8101C0.700045 60.9701 0.220045 61.5801 0.250045 62.4601C0.270045 63.1501 0.360045 63.8401 0.460045 64.5301C0.620045 65.5301 1.42005 66.2101 2.25005 66.0901C3.09005 65.9701 3.65005 65.1501 3.62005 64.1401Z" fill="#4538DA"/>
<path d="M112.49 53.27C111.65 53.4 111.22 53.92 111.25 54.79C111.26 55.19 111.26 55.59 111.26 55.99C111.26 57.65 111.82 58.53 112.84 58.52C113.87 58.51 114.41 57.63 114.44 55.97C114.39 55.46 114.41 54.94 114.29 54.45C114.06 53.54 113.41 53.13 112.49 53.27Z" fill="#4538DA"/>
<path d="M2.3 46.7699C3.11 46.9799 3.81 46.7399 4.1 45.9499C4.42 45.0699 4.58 44.1199 4.8 43.2299C4.74 42.3599 4.24 41.7099 3.48 41.6999C2.93 41.6899 2.12 42.1199 1.87 42.5899C1.46 43.3599 1.35 44.3199 1.23 45.2199C1.12 45.9899 1.52 46.5699 2.3 46.7699Z" fill="#4538DA"/>
<path d="M49.28 3.58997C50.06 3.48997 50.9 3.41997 51.72 3.24997C52.55 3.06997 52.93 2.45997 52.87 1.62997C52.81 0.789971 52.29 0.219971 51.48 0.219971C50.54 0.219971 49.58 0.349971 48.67 0.609971C47.92 0.829971 47.45 1.46997 47.65 2.30997C47.84 3.09997 48.38 3.55997 49.28 3.58997Z" fill="#4538DA"/>
<path d="M110.03 72.2301C109.82 72.3901 109.27 72.6101 109.09 73.0101C108.68 73.8901 108.39 74.8401 108.17 75.7901C107.98 76.6001 108.51 77.1001 109.22 77.3701C109.94 77.6401 110.6 77.4001 110.89 76.7401C111.3 75.8201 111.64 74.8401 111.85 73.8601C112.01 73.0401 111.14 72.2201 110.03 72.2301Z" fill="#4538DA"/>
<path d="M15.61 21.4999C16.1 21.2699 16.45 21.1899 16.67 20.9799C17.3 20.3799 17.91 19.7499 18.48 19.0799C19.1 18.3599 18.92 17.6399 18.26 17.0599C17.64 16.4999 16.91 16.4399 16.28 17.0199C15.63 17.6099 15 18.2299 14.5 18.9399C14.26 19.2899 14.16 19.9699 14.34 20.3199C14.61 20.8099 15.19 21.1299 15.61 21.4999Z" fill="#4538DA"/>
<path d="M23.49 14.57C24.3 14.09 25.03 13.46 25.74 12.84C25.96 12.65 26.04 12.28 26.11 12.13C26.15 10.81 24.93 9.95003 23.94 10.51C23.13 10.98 22.37 11.58 21.67 12.21C21.03 12.79 21.1 13.5 21.63 14.17C22.15 14.82 22.84 14.95 23.49 14.57Z" fill="#4538DA"/>
<path d="M69.75 109.87C68.8 109.82 67.81 110.14 66.88 110.44C66.14 110.68 65.83 111.35 66.02 112.12C66.21 112.93 66.78 113.33 67.77 113.38C68.54 113.18 69.53 113.09 70.35 112.66C70.79 112.43 71.26 111.55 71.14 111.12C70.99 110.58 70.25 109.89 69.75 109.87Z" fill="#4538DA"/>
<path d="M60.66 111.27C60.25 110.98 59.56 111.09 58.99 111.03C58.99 111.07 58.98 111.11 58.98 111.15C58.69 111.15 58.4 111.14 58.1 111.15C57.04 111.2 56.34 111.82 56.35 112.71C56.36 113.6 57.06 114.27 58.1 114.28C58.86 114.28 59.63 114.22 60.39 114.12C61.12 114.02 61.7 113.55 61.58 112.81C61.49 112.24 61.12 111.58 60.66 111.27Z" fill="#4538DA"/>
<path d="M1.50002 56.4299C2.40002 56.4699 2.92002 55.9099 3.09002 55.0699C3.18002 54.6499 3.11002 54.1999 3.11002 53.7599C3.12002 53.7599 3.13002 53.7599 3.15002 53.7599C3.17002 53.4299 3.19002 53.1099 3.20002 52.7799C3.21002 51.8099 2.68002 51.2199 1.78002 51.1599C0.860023 51.0899 0.270023 51.6499 0.160023 52.5799C0.070023 53.3799 -0.019977 54.1899 0.020023 54.9799C0.060023 55.8499 0.630023 56.3899 1.50002 56.4299Z" fill="#4538DA"/>
<path d="M112.64 62.86C111.81 62.7 111.03 63.23 110.86 64.09C110.71 64.84 110.65 65.61 110.53 66.59C110.46 67.36 111.03 67.9 111.9 68.05C112.71 68.18 113.34 67.78 113.53 66.95C113.72 66.13 113.88 65.3 113.94 64.47C114.02 63.58 113.51 63.03 112.64 62.86Z" fill="#4538DA"/>
<path d="M4.79002 71.03C4.56002 70.63 3.68002 70.26 3.26002 70.39C2.77002 70.55 2.10002 71.3 2.14002 71.74C2.24002 72.79 2.59002 73.87 3.09002 74.82C3.28002 75.18 4.20002 75.45 4.66002 75.32C5.17002 75.18 5.53002 74.53 5.94002 74.12C5.51002 72.92 5.29002 71.89 4.79002 71.03Z" fill="#4538DA"/>
<path d="M68.09 3.79007C68.85 4.02007 69.66 4.08007 70.45 4.22007C71.32 4.28007 71.89 3.88007 72.12 3.09007C72.37 2.22007 71.95 1.56007 71.13 1.29007C70.38 1.04007 69.58 0.910066 68.79 0.780066C67.93 0.640066 67.02 1.26007 66.9 2.07007C66.77 2.98007 67.3 3.56007 68.09 3.79007Z" fill="#4538DA"/>
<path d="M30.85 9.7701C32.08 9.0401 33.19 8.5001 34.13 7.7501C34.39 7.5401 34.37 6.5301 34.1 6.2001C33.76 5.7901 32.96 5.4001 32.48 5.5201C31.59 5.7401 30.7 6.2201 29.99 6.8101C29.62 7.1101 29.37 7.9301 29.5 8.3901C29.64 8.8801 30.3 9.2301 30.85 9.7701Z" fill="#4538DA"/>
<path d="M35.88 83.5599C36.62 83.5599 37.45 82.7499 37.48 81.9999C37.51 81.2099 36.78 80.4599 35.96 80.4199C35.12 80.3899 34.37 81.0499 34.32 81.8699C34.28 82.6799 35.09 83.5599 35.88 83.5599Z" fill="#4538DA"/>
<path d="M74.66 23.39C70.08 23.4 66.38 27.12 66.39 31.71C66.39 36.25 70.17 40.07 74.67 40.07C79.34 40.07 83.19 36.31 83.11 31.65C83.03 26.54 78.89 23.32 74.66 23.39ZM74.72 36.95C71.79 36.92 69.5 34.61 69.51 31.7C69.53 28.77 71.8 26.48 74.73 26.47C77.66 26.46 80.02 28.83 80.01 31.77C80 34.62 77.58 36.99 74.72 36.95Z" fill="#4538DA"/>
<path d="M61.33 28.8C62.21 29.17 62.96 28.7 63.45 27.48C64.74 24.28 66.9 21.87 70.12 20.58C71.43 20.06 72.88 19.93 74.23 19.49C74.75 19.32 75.15 18.78 75.41 18.57C75.41 17.23 74.67 16.55 73.69 16.59C68.1 16.82 62.39 21.08 60.55 26.41C60.13 27.58 60.41 28.42 61.33 28.8Z" fill="#4538DA"/>
<path d="M68.91 54.55C68.29 54.85 67.85 55.04 67.45 55.26C63.38 57.54 59.31 59.8401 55.23 62.1101C54.14 62.72 53.72 63.52 54.12 64.39C54.53 65.28 55.45 65.51 56.57 64.89C60.22 62.89 63.85 60.86 67.48 58.84C68.21 58.43 69.02 58.0701 69.59 57.4901C69.97 57.1001 70.22 56.31 70.1 55.78C70.01 55.31 69.34 54.96 68.91 54.55Z" fill="#4538DA"/>
<path d="M73.06 51.9201C72.21 51.9401 71.57 52.6201 71.6 53.4901C71.63 54.3301 72.33 55.0401 73.13 55.0301C73.9 55.0301 74.68 54.2501 74.7 53.4901C74.71 52.6801 73.9 51.9001 73.06 51.9201Z" fill="#4538DA"/>
<path d="M61.62 33.92C62.4 33.9 63.15 33.12 63.14 32.33C63.14 31.47 62.47 30.84 61.58 30.85C60.73 30.86 60 31.57 60.04 32.37C60.08 33.15 60.88 33.94 61.62 33.92Z" fill="#4538DA"/>
</svg>
