<svg width="100" height="96" viewBox="0 0 100 96" fill="none" xmlns="http://www.w3.org/2000/svg">
<path d="M99.39 66.3101C99.39 56.7201 99.39 47.1401 99.39 37.5601C99.39 27.9101 99.39 18.2601 99.38 8.61011C99.38 7.98011 99.37 7.34011 99.26 6.73011C99.1 5.87011 98.54 5.32011 97.66 5.18011C97.17 5.10011 96.67 5.09011 96.17 5.09011C88.78 5.09011 81.38 5.09011 73.99 5.09011C67.16 5.09011 60.33 5.09011 53.5 5.11011C52.54 5.11011 52.17 4.71011 52.19 3.80011C52.2 3.27011 52.21 2.74011 52.17 2.21011C52.09 1.23011 51.25 0.320111 50.24 0.040111C49.53 -0.149889 48.3 0.320111 47.97 1.12011C47.7 1.76011 47.66 2.53011 47.64 3.24011C47.59 5.03011 47.55 5.09011 45.79 5.09011C31.62 5.08011 17.46 5.10011 3.3 5.05011C0.799997 5.04011 -0.0400034 6.14011 -3.41691e-06 8.41011C0.0599966 11.7901 0.0199966 15.1801 0.0199966 18.5601C0.0199966 34.6401 0.0199966 50.7301 0.0299966 66.8101C0.0299966 67.3901 0.0999966 68.0201 0.339997 68.5301C0.929997 69.7801 2.08 70.0201 3.35 70.0201C13.03 70.0101 22.72 70.0101 32.4 70.0101C33.64 70.0101 33.89 70.4301 33.3 71.5201C32.79 72.4501 32.23 73.3401 31.7 74.2601C29.42 78.2501 27.15 82.2401 24.88 86.2401C23.82 88.1101 22.76 89.9801 21.74 91.8701C21.14 93.0001 21.51 94.2601 22.58 95.0201C23.45 95.6401 24.49 95.4301 25.39 94.4301C25.63 94.1601 25.84 93.8601 26.02 93.5401C28.31 89.5201 30.6 85.4901 32.88 81.4701C34.81 78.0801 36.78 74.7101 38.63 71.2701C39.13 70.3401 39.75 69.9601 40.74 69.9701C42.43 69.9901 44.12 69.9701 45.81 69.9901C47.11 70.0001 47.4 70.3001 47.4 71.5801C47.4 77.1801 47.39 82.7901 47.39 88.3901C47.39 88.9201 47.4 89.4501 47.49 89.9701C47.67 91.0501 48.35 91.7101 49.29 91.8201C50.47 91.9601 51.23 91.6001 51.68 90.5001C51.92 89.9101 52.01 89.2201 52.01 88.5701C52.03 82.9001 52.01 77.2301 52.01 71.5601C52.01 70.2401 52.27 69.9901 53.58 69.9901C55.17 69.9901 56.77 70.1001 58.35 69.9601C59.81 69.8301 60.51 70.5401 61.13 71.6801C62.59 74.3501 64.1 76.9801 65.6 79.6301C67.59 83.1401 69.57 86.6601 71.57 90.1601C72.36 91.5401 73.11 92.9401 74.01 94.2501C75.05 95.7901 76.84 95.6301 77.83 94.0601C78.52 92.9501 77.93 92.0601 77.45 91.2001C75.42 87.5601 73.35 83.9501 71.28 80.3301C69.56 77.3201 67.82 74.3101 66.11 71.2901C65.96 71.0301 65.83 70.5301 65.95 70.4001C66.18 70.1601 66.61 70.0001 66.96 69.9901C71.7 69.9701 76.45 69.9801 81.19 69.9801C86.26 69.9801 91.34 69.9901 96.41 69.9801C98.43 69.9801 99.32 69.0701 99.37 67.0701C99.39 66.8401 99.39 66.5701 99.39 66.3101ZM94.78 63.2501C94.78 65.2901 94.71 65.3701 92.67 65.3701C64.12 65.3701 35.56 65.3701 7.01 65.3701C6.71 65.3701 6.41 65.3701 6.11 65.3701C4.88 65.3501 4.61 65.0801 4.61 63.8101C4.61 60.1301 4.61 56.4501 4.61 52.7701C4.61 38.9801 4.61 25.1801 4.61 11.3801C4.61 9.81011 4.74 9.67011 6.29 9.67011C20.78 9.67011 35.27 9.67011 49.77 9.67011C64.23 9.67011 78.69 9.67011 93.15 9.67011C94.65 9.67011 94.79 9.82011 94.79 11.3201C94.78 28.6301 94.78 45.9401 94.78 63.2501Z" fill="#4538DA"/>
</svg>
