<svg width="100" height="96" fill="none" xmlns="http://www.w3.org/2000/svg">
  <path d="M99.39 66.31V37.56c0-9.65 0-19.3-.01-28.95 0-.63-.01-1.27-.12-1.88-.16-.86-.72-1.41-1.6-1.55-.49-.08-.99-.09-1.49-.09H73.99c-6.83 0-13.66 0-20.49.02-.96 0-1.33-.4-1.31-1.31.01-.53.02-1.06-.02-1.59-.08-.98-.92-1.89-1.93-2.17-.71-.19-1.94.28-2.27 1.08-.27.64-.31 1.41-.33 2.12-.05 1.79-.09 1.85-1.85 1.85-14.17-.01-28.33.01-42.49-.04C.8 5.04-.04 6.14 0 8.41c.06 3.38.02 6.77.02 10.15 0 16.08 0 32.17.01 48.25 0 .58.07 1.21.31 1.72.59 1.25 1.74 1.49 3.01 1.49 9.68-.01 19.37-.01 29.05-.01 1.24 0 1.49.42.9 1.51-.51.93-1.07 1.82-1.6 2.74-2.28 3.99-4.55 7.98-6.82 11.98-1.06 1.87-2.12 3.74-3.14 5.63-.6 1.13-.23 2.39.84 3.15.87.62 1.91.41 2.81-.59.24-.27.45-.57.63-.89 2.29-4.02 4.58-8.05 6.86-12.07 1.93-3.39 3.9-6.76 5.75-10.2.5-.93 1.12-1.31 2.11-1.3 1.69.02 3.38 0 5.07.02 1.3.01 1.59.31 1.59 1.59 0 5.6-.01 11.21-.01 16.81 0 .53.01 1.06.1 1.58.18 1.08.86 1.74 1.8 1.85 1.18.14 1.94-.22 2.39-1.32.24-.59.33-1.28.33-1.93.02-5.67 0-11.34 0-17.01 0-1.32.26-1.57 1.57-1.57 1.59 0 3.19.11 4.77-.03 1.46-.13 2.16.58 2.78 1.72 1.46 2.67 2.97 5.3 4.47 7.95 1.99 3.51 3.97 7.03 5.97 10.53.79 1.38 1.54 2.78 2.44 4.09 1.04 1.54 2.83 1.38 3.82-.19.69-1.11.1-2-.38-2.86-2.03-3.64-4.1-7.25-6.17-10.87-1.72-3.01-3.46-6.02-5.17-9.04-.15-.26-.28-.76-.16-.89.23-.24.66-.4 1.01-.41 4.74-.02 9.49-.01 14.23-.01 5.07 0 10.15.01 15.22 0 2.02 0 2.91-.91 2.96-2.91.02-.23.02-.5.02-.76zm-4.61-3.06c0 2.04-.07 2.12-2.11 2.12H6.11c-1.23-.02-1.5-.29-1.5-1.56V52.77 11.38c0-1.57.13-1.71 1.68-1.71h86.86c1.5 0 1.64.15 1.64 1.65-.01 17.31-.01 34.62-.01 51.93z" fill="#4538DA"/>
  <path d="M63.94 19.91c-.35-.31-1.37-.37-1.71-.1-1.75 1.41-3.4 2.94-5.02 4.5-.57.55-.73 1.27-.04 1.93.55.53 1.54.59 2.21.1.29-.21.5-.53.8-.74.22-.15.58-.34.77-.25.19.09.37.5.33.73-.23 1.15-.4 2.35-.84 3.43-.81 1.96-2.3 3.34-4.14 4.39-1.89 1.08-3.96.93-5.76 1-1.07 0-1.9-.03-2.73 0-3.57.13-6.74 1.24-9.31 3.83-1.85 1.87-2.94 4.12-3.45 6.69-.09.43-.38.96-.74 1.16-1.3.72-2.25 1.66-2.77 3.09-.73 2-.26 4.22 1.38 5.82 1.27 1.24 4.06 1.78 5.67 1.09 3.16-1.35 4.37-5.23 2.43-8.06-.49-.71-1.32-1.19-1.94-1.82-.25-.25-.58-.67-.53-.95.37-2.38 1.71-4.17 3.53-5.66 2.03-1.67 4.45-1.87 6.93-1.91 1.59-.02 3.19-.03 4.76-.23 4.62-.59 7.84-3.18 9.74-7.36.57-1.26.73-2.72 1.04-4.1.2-.87.59-1.04 1.3-.5.13.1.24.23.37.33.68.49 1.63.44 2.19-.12.64-.64.59-1.33 0-1.93-1.46-1.47-2.91-2.98-4.47-4.36zM36.23 53.82c-1.09-.01-2.18-.98-2.15-1.93.02-1.05 1.15-2.3 2.06-2.31 1.21-.01 2.27 1 2.27 2.17 0 1.23-.9 2.09-2.18 2.07zM59.11 49.44c.46-.42.88-.89 1.31-1.35.59-.64.6-1.3.02-1.95-.6-.67-1.31-.73-2.07-.33-.26.14-.48.36-.69.56-2 1.95-1.84 1.33-3.41-.01-.41-.35-.9-.61-1.5-1-.53.39-1.15.64-1.38 1.09-.2.4-.12 1.1.11 1.52.31.56.85 1 1.34 1.44.55.49.54.92.02 1.42-.48.45-.95.92-1.37 1.42-.57.68-.43 1.36.15 1.96.56.58 1.23.67 1.9.24.52-.34.99-.78 1.45-1.19.85-.77 1.17-.77 2.02-.02.52.46 1.04.92 1.63 1.26.62.36 1.22.15 1.69-.38s.63-1.11.17-1.71c-.44-.57-.91-1.12-1.42-1.64-.46-.47-.49-.87.03-1.33zM39.38 26.83c-.42.37-.85.75-1.18 1.2-.54.72-.5 1.5.08 2.18.45.52 1.52.51 2.19-.03.44-.35.85-.74 1.21-1.17.56-.68 1.1-.61 1.69-.08.46.43.85 1.01 1.39 1.26.54.24 1.29.32 1.85.15.42-.13.68-.77 1.02-1.18-.25-.48-.36-.84-.59-1.1-.36-.42-.77-.83-1.22-1.16-.7-.51-.64-.97-.06-1.53.5-.48 1.01-.97 1.41-1.53.46-.64.37-1.31-.22-1.88-.56-.55-1.16-.79-1.85-.25-.52.4-1.03.83-1.52 1.27-.85.75-1.11.75-1.91-.01-.41-.39-.82-.76-1.26-1.11-.74-.59-1.49-.54-2.13.14-.65.7-.5 1.47.03 2.17.32.42.74.75 1.11 1.13.49.51.54 1.01-.04 1.53z" fill="#4538DA"/>
</svg>
