<svg width="95" height="102" fill="none" xmlns="http://www.w3.org/2000/svg">
  <path d="M91.21 37.55c-2.05-4.97-4.69-9.68-8.4-13.67-.96-1.03-1.36-2.16-1.21-3.57.32-3.03-.27-5.93-1.51-8.67C77.28 5.37 72.37 1.51 65.69.33c-6.95-1.23-12.96 1-17.91 6.08-.55.57-1.51 1.04-2.29 1.05-8.56.14-16.32 2.82-23.46 7.35-6.49 4.11-11.66 9.51-15.55 16.21C3.1 36.85.74 42.99.19 49.69c-.95 11.47 1.71 22.06 8.4 31.53C17.97 94.5 30.94 101 46.74 101.59c7.98-.22 15.25-1.75 22.1-5.47 7.66-4.17 13.88-9.75 18.45-17.15 4.51-7.29 7.04-15.17 7.12-23.83.06-6.1-.89-12-3.2-17.59zm-43.1-19.99c1.04-8.6 9.37-13.84 16.94-12.24 5.96 1.26 9.46 5.17 11.21 10.81.27.88.23 1.86.33 2.79.13 3.14-.99 5.93-2.29 8.69-2.53 5.36-6.61 9.44-10.94 13.33-.8.72-1.41.58-2.17-.09-3.45-3.06-6.77-6.27-9.17-10.21-2.42-3.98-4.51-8.14-3.91-13.08zm40.63 44.43c-.85 4.72-2.65 9.07-5.06 13.22-4.45 7.64-10.72 13.24-18.56 17.18-5.63 2.83-11.6 4.01-17.86 4.02-10.62-.05-19.88-3.71-27.89-10.62-.41-.35-.73-1.05-.74-1.59-.05-2.15-.55-3.13-2.55-3.46-1.81-.29-2.76-1.34-3.73-2.72-3.3-4.75-5.52-10-6.51-15.63-1.06-5.98-1.14-12.01.45-18.01 2.57-9.65 7.83-17.48 15.73-23.45 5.43-4.1 11.51-6.93 18.4-7.72 3.36-.39 3.42-.42 2.89 2.82-.77 4.68.33 8.93 2.31 13.17 3.38 7.24 8.95 12.5 14.92 17.45 1.19.99 2.46.95 3.72-.02 6.17-4.7 11.71-9.95 14.83-17.26.49-1.14 1.07-1.01 1.68-.17 3.17 4.39 5.65 9.1 7.09 14.36 1.67 6.09 2 12.22.88 18.43z" fill="#4538DA"/>
  <path d="M44.98 73.22c-2.28 1.13-4.49 2.41-6.71 3.67-.43.25-.99.69-1.05 1.11-.14.91-.28 2.01.11 2.76.47.92 1.55 1.47 2.69.87 2.26-1.18 4.53-2.35 6.69-3.7.76-.47 1.19-1.45 1.52-1.87.06-2.35-1.64-3.63-3.25-2.84zM31.36 79.37c-2.46.42-4.91.91-7.33 1.52-1.59.4-2.37 1.59-2.14 2.81.22 1.19 1.46 2.02 3.04 2.28 2.66-.68 5.35-1.26 7.96-2.08 1.12-.35 1.68-1.47 1.21-2.69-.46-1.19-1.35-2.08-2.74-1.84zM58.26 62.61c-.62-.29-1.88-.11-2.37.37-2 1.95-3.87 4.05-5.68 6.19-.85 1.01-.61 2.2.28 3.12.84.87 2.49.79 3.55-.28 1.69-1.69 3.3-3.47 4.87-5.28.41-.48.55-1.2.92-2.07-.5-.7-.87-1.72-1.57-2.05zM62.75 52.15c-.66-.14-1.84.37-2.17.95-.82 1.42-1.55 3.01-1.78 4.6-.11.78.8 2.08 1.59 2.49.6.32 2.17-.12 2.54-.7.93-1.46 1.43-3.2 1.94-4.42-.12-1.83-1-2.69-2.12-2.92zM62.4 27.37c3.67-.04 6.88-3.35 6.78-7-.1-3.77-3.11-6.77-6.81-6.78-3.71-.02-6.9 3.19-6.88 6.9.02 3.68 3.27 6.92 6.91 6.88zm-1.82-6.84c.21-.7 1.09-1.56 1.79-1.68.99-.16 1.84.75 1.62 1.78-.15.67-1 1.19-1.87 2.16-.74-1.03-1.67-1.8-1.54-2.26z" fill="#4538DA"/>
</svg>
